<svg xmlns="http://www.w3.org/2000/svg" xmlns:xlink="http://www.w3.org/1999/xlink" id="Livello_1" x="0px" y="0px" viewBox="0 0 196.7 246.9" style="enable-background:new 0 0 196.7 246.9;" xml:space="preserve"><style type="text/css">	.st0{fill:#A60933;}	.st1{fill:#2D2D2B;}</style><g>	<g>		<g>			<path class="st0" d="M10.5,89.9l-4.8-0.5l4.4,3.9l-0.2,1.9l-9.6-1l0.3-2.4l4.8,0.5l-4.4-3.9l0.2-1.9l9.6,1L10.5,89.9z"></path>			<path class="st0" d="M3.6,74.5l9.4,2.1L12.5,79l-5.1-1.1l3.3,3.1l-0.1,0.2l-4.3,1.4l5,1.1l-0.5,2.4l-9.4-2.1L2,81.7l4.5-1.5    l-3.5-3.3L3.6,74.5z"></path>			<path class="st0" d="M13.7,67.5l0.4-1l4,1.4l-0.8,2.3l-1.7-0.6l-2,5.8l-9.1-3.2l0.8-2.4l6.8,2.4l0.8-2.4L6,67.5l0.8-2.4    L13.7,67.5z"></path>		</g>		<g>			<path class="st0" d="M25.2,50.9l-4-2.7l2.2,5.5l-1.1,1.6l-8-5.3l1.4-2.1l4,2.7l-2.2-5.5l1-1.6l8,5.3L25.2,50.9z"></path>			<path class="st0" d="M29.4,41c0.7,0.6,1,1.2,1,2.1c0,0.9-0.3,1.7-1,2.5c-1.2,1.5-2.5,2-4.1,1.5l0.4-2.4c0.8,0.3,1.4,0.1,1.9-0.6    c0.5-0.6,0.5-1.1,0-1.4c-0.4-0.3-0.8-0.2-1.2,0.2l-0.9,1.1l-1.7-1.3l0.6-0.7c0.5-0.6,0.5-1,0.1-1.4c-0.4-0.3-0.8-0.2-1.2,0.3    c-0.4,0.5-0.4,1.1-0.1,1.7L21,43.5c-0.6-1.3-0.5-2.7,0.6-4c0.6-0.8,1.3-1.3,2.2-1.4c0.8-0.2,1.5,0,2.2,0.6c0.7,0.5,1,1.2,0.9,2    C27.8,40.2,28.6,40.4,29.4,41z"></path>			<path class="st0" d="M27.7,32.8c0.7-0.7,1.5-1.1,2.4-1.1c0.9,0,1.7,0.3,2.4,1c0.7,0.7,1.1,1.5,1.1,2.4s-0.3,1.7-1,2.4l-0.9,0.9    l2.1,2l-1.7,1.8l-7-6.6L27.7,32.8z M30.9,35.8c0.4-0.4,0.4-1-0.1-1.4s-1-0.4-1.4,0l-0.9,0.9l1.5,1.4L30.9,35.8z"></path>			<path class="st0" d="M41.3,33.1l-1.2-0.8l-2.4,2.1l0.6,1.3l-2,1.8l-4-9.3l2.2-2l8.7,5.1L41.3,33.1z M36.8,32.5l1.5-1.3l-2.9-1.8    L36.8,32.5z"></path>			<path class="st0" d="M48,28l-2.8-3.9l0.1,5.9l-1.6,1.1l-5.6-7.8l2-1.4l2.8,3.9l-0.1-5.9l1.5-1.1l5.6,7.8L48,28z"></path>			<path class="st0" d="M49.4,24.2c1-0.4,1.2-0.9,0.5-2.1l-2.9-5l5.9-3.4l4.8,8.4l-2.1,1.2L52,17l-1.7,1l1.7,3    c0.8,1.4,0.9,2.6,0.5,3.4c-0.4,0.8-1.1,1.4-2,1.8L49.4,24.2z"></path>			<path class="st0" d="M59.5,13.8c0.9-0.4,1.8-0.4,2.6-0.1c0.9,0.3,1.5,0.9,1.9,1.8c0.4,0.9,0.4,1.8,0.1,2.6s-0.9,1.5-1.8,1.9    l-3.4,1.5l-4-8.8l2.2-1l1.2,2.6L59.5,13.8z M61.4,17.8c0.5-0.2,0.7-0.8,0.5-1.3C61.6,16,61,15.7,60.5,16l-1.2,0.5l0.8,1.9    L61.4,17.8z"></path>			<path class="st0" d="M66.7,16.8c-1.2-0.6-2-1.6-2.5-2.9c-0.5-1.4-0.4-2.6,0.2-3.8c0.6-1.2,1.6-2.1,3-2.5c0.8-0.3,1.7-0.3,2.5-0.2    c0.8,0.2,1.6,0.5,2.2,1l-1.6,1.8c-0.6-0.5-1.4-0.7-2.3-0.4c-0.7,0.2-1.2,0.7-1.5,1.3c-0.3,0.6-0.3,1.3-0.1,2    c0.3,0.7,0.7,1.3,1.3,1.6c0.6,0.3,1.3,0.3,2,0.1c0.8-0.3,1.4-0.9,1.6-1.7l2.4,0.5c-0.3,1.6-1.6,2.9-3.2,3.5    C69.2,17.5,67.9,17.4,66.7,16.8z"></path>			<path class="st0" d="M82.9,13.6l-2.7,0.6l-3.7-3.6l1,4.2l-2.4,0.5L73,6l2.4-0.5l0.9,3.9l1.7-4.5l2.7-0.6l-1.9,5.2L82.9,13.6z"></path>			<path class="st0" d="M88.7,12.8L88.1,8l-2.8,5.2l-1.9,0.2L82.2,4l2.4-0.3l0.6,4.8L88,3.2L89.9,3l1.2,9.5L88.7,12.8z"></path>			<path class="st0" d="M97.7,12.3l-0.1-4.8l-3.3,4.9l-1.9,0l-0.2-9.6l2.5-0.1l0.1,4.8L98,2.7l1.9,0l0.2,9.6L97.7,12.3z M93.8,2    l0-1.9L98.2,0l0,1.9L93.8,2z"></path>			<path class="st0" d="M115.4,4l-1.2,9.6l-2.4-0.3l0.6-5.1l-2.8,3.6l-0.2,0l-1.8-4.1l-0.6,5.1l-2.4-0.3l1.2-9.6l2.4,0.3l1.9,4.4    l2.9-3.8L115.4,4z"></path>			<path class="st0" d="M118.4,12.2L122,13l-0.5,2.3l-6-1.4l2.1-9.4l6,1.4l-0.5,2.2l-3.6-0.8l-0.3,1.3l3.2,0.7l-0.5,2.2l-3.2-0.7    L118.4,12.2z"></path>			<path class="st0" d="M130.5,15.7l1,0.3l-1.3,4l-2.3-0.8l0.6-1.7l-4.3-1.4l-0.6,1.7l-2.3-0.8l1.3-4l1,0.3c0.6-0.5,1.2-1.4,1.6-2.7    l1.3-4l6.4,2.1L130.5,15.7z M128.2,14.9l1.6-4.7l-1.7-0.6l-0.6,1.8c-0.4,1.2-0.9,2.1-1.5,2.7L128.2,14.9z"></path>			<path class="st0" d="M136.3,20.8l2-4.4l-5.1,3l-1.7-0.8l4-8.8l2.2,1l-2,4.4l5.1-3l1.7,0.8l-4,8.8L136.3,20.8z"></path>			<path class="st0" d="M147.4,24.1l0.9,0.6l-2.1,3.6l-2.1-1.2l0.9-1.6l-5.3-3.1l4.9-8.3l2.2,1.3l-3.7,6.3l2.2,1.3l3.7-6.3l2.2,1.3    L147.4,24.1z"></path>			<path class="st0" d="M152,30.3l2.9-3.9l-5.6,1.9l-1.5-1.1l5.7-7.8l2,1.5l-2.9,3.9l5.6-1.9l1.5,1.1l-5.7,7.8L152,30.3z"></path>			<path class="st0" d="M165.3,28.9l1.8,1.6l-6.5,7.1l-1.8-1.6l2.5-2.7l-2-1.8l-2.5,2.7l-1.8-1.6l6.5-7.1l1.8,1.6l-2.4,2.6l2,1.8    L165.3,28.9z"></path>			<path class="st0" d="M163.2,38.6c0.1-1.3,0.7-2.5,1.7-3.5c1.1-1,2.3-1.4,3.6-1.3c1.3,0.1,2.5,0.6,3.5,1.7c0.6,0.6,1,1.4,1.2,2.2    c0.2,0.8,0.2,1.6-0.1,2.4l-2.3-0.8c0.3-0.7,0.1-1.6-0.5-2.2c-0.5-0.6-1.1-0.9-1.8-0.9c-0.7,0-1.3,0.2-1.9,0.7    c-0.6,0.5-0.9,1.1-0.9,1.8c0,0.7,0.2,1.3,0.7,1.9c0.6,0.7,1.4,1,2.2,0.8l0.5,2.4c-1.6,0.3-3.3-0.3-4.5-1.6    C163.6,41.1,163.1,39.9,163.2,38.6z"></path>			<path class="st0" d="M172.6,52.2l-1.6-2.2l1.8-4.8l-3.5,2.5l-1.5-2l7.8-5.7l1.5,2l-3.3,2.4l4.8-0.3l1.6,2.2l-5.6,0.3L172.6,52.2z    "></path>			<path class="st0" d="M175.5,57.1l4.2-2.5l-5.9-0.5l-1-1.6l8.3-4.9l1.3,2.1l-4.2,2.5l5.9,0.5l1,1.6l-8.3,4.9L175.5,57.1z"></path>			<path class="st0" d="M179.6,65.2l4.4-2l-5.8-1.1l-0.8-1.7l8.7-4l1,2.2l-4.4,2l5.8,1.1l0.8,1.7l-8.7,4L179.6,65.2z M187.5,57.5    l1.7-0.8l1.9,4l-1.7,0.8L187.5,57.5z"></path>			<path class="st0" d="M186.6,78l0.3,1.1l-4,1.2l-0.7-2.4l1.8-0.5l-1.8-5.9l9.2-2.8l0.7,2.4l-6.9,2.1l0.7,2.4l6.9-2.1l0.7,2.4    L186.6,78z"></path>			<path class="st0" d="M187.5,82.5l0.7,3.7l-2.3,0.5l-1.2-6.1l9.4-1.9l1.2,6l-2.3,0.5l-0.7-3.6l-1.3,0.3l0.7,3.2l-2.2,0.4l-0.7-3.2    L187.5,82.5z"></path>			<path class="st0" d="M196.3,91.7l0.3,2.4l-9.6,1l-0.3-2.4l3.7-0.4l-0.3-2.7l-3.7,0.4l-0.3-2.4l9.6-1L196,89l-3.5,0.4l0.3,2.7    L196.3,91.7z"></path>			<path class="st0" d="M196.7,102.9l-2.4,0l0-2.4l-7.2,0.1l0-2.5l7.2-0.1l0-2.4l2.4,0L196.7,102.9z"></path>			<path class="st0" d="M196.7,107.7c0,1-0.3,1.8-0.9,2.4c-0.6,0.7-1.4,1-2.4,1s-1.8-0.3-2.4-1c-0.6-0.7-0.9-1.5-0.9-2.4v-1.3h-2.9    v-2.5h9.6V107.7z M192.3,107.7c0,0.5,0.4,1,1,1s1-0.4,1-1v-1.3h-2V107.7z"></path>		</g>	</g>	<g>		<path class="st1" d="M15.6,61.2c-0.6,0.2-1.2,0.1-1.7-0.1c-0.6-0.3-0.9-0.7-1.1-1.3c-0.2-0.6-0.1-1.2,0.1-1.7   c0.3-0.6,0.7-0.9,1.3-1.1c0.6-0.2,1.1-0.2,1.7,0.1c0.6,0.3,0.9,0.7,1.2,1.3c0.2,0.6,0.2,1.1-0.1,1.7C16.6,60.6,16.2,61,15.6,61.2z   "></path>		<path class="st1" d="M190.3,115.6c0.5-0.4,1-0.7,1.6-0.7c0.6,0,1.1,0.2,1.6,0.7c0.4,0.5,0.7,1,0.7,1.6c0,0.6-0.2,1.1-0.7,1.6   c-0.4,0.4-0.9,0.7-1.6,0.7c-0.6,0-1.2-0.2-1.6-0.7c-0.4-0.4-0.7-0.9-0.7-1.6C189.6,116.6,189.9,116,190.3,115.6z"></path>		<path class="st1" d="M196.7,127.6c0,0.9-0.3,1.6-0.9,2.2c-0.6,0.6-1.3,0.9-2.2,0.9s-1.6-0.3-2.2-0.9c-0.6-0.6-0.9-1.3-0.9-2.2   v-2.5h-3.6v-1h9.6V127.6z M191.6,127.6c0,0.6,0.2,1.1,0.6,1.5c0.4,0.4,0.9,0.6,1.5,0.6s1.1-0.2,1.5-0.6c0.4-0.4,0.6-0.9,0.6-1.5   v-2.5h-4.2V127.6z"></path>		<path class="st1" d="M188,133.2v4.7h-0.9v-5.6h9.6v5.6h-0.9v-4.6h-3.4v4.3h-0.9v-4.3H188z"></path>		<path class="st1" d="M196.7,146.4h-9.6v-1h8.7v-4.9h-8.7v-1h9.6V146.4z"></path>		<path class="st1" d="M196.6,152.3c0,0.9-0.3,1.6-0.9,2.1c-0.6,0.6-1.3,0.8-2.2,0.8c-0.9,0-1.6-0.3-2.1-0.9   c-0.6-0.6-0.8-1.3-0.8-2.2l0.1-2.5l-3.6-0.1l0-1l9.6,0.3L196.6,152.3z M191.5,152.1c0,0.6,0.2,1.1,0.5,1.5   c0.4,0.4,0.9,0.6,1.5,0.6s1.1-0.2,1.5-0.5c0.4-0.4,0.6-0.9,0.7-1.5l0.1-2.5l-4.2-0.1L191.5,152.1z"></path>		<path class="st1" d="M186.1,160.7c0.2-1.4,0.8-2.5,1.9-3.3c1.1-0.8,2.3-1.1,3.7-1c1.4,0.2,2.5,0.8,3.3,1.9c0.8,1.1,1.2,2.3,1,3.7   c-0.2,1.4-0.8,2.5-1.9,3.3c-1.1,0.8-2.3,1.1-3.7,1c-1.4-0.2-2.5-0.8-3.3-1.9C186.2,163.3,185.9,162.1,186.1,160.7z M187,160.9   c-0.2,1.1,0.1,2.1,0.8,3s1.6,1.4,2.7,1.5s2.1-0.1,3-0.8c0.9-0.7,1.4-1.5,1.6-2.7c0.2-1.1-0.1-2.1-0.8-3c-0.7-0.9-1.6-1.4-2.7-1.5   c-1.1-0.2-2.1,0.1-3,0.8C187.7,158.8,187.2,159.7,187,160.9z"></path>		<path class="st1" d="M184.5,173.5l-0.2,1l-2.7-0.7l0.2-0.9l1.8,0.4l1.7-6.7l-1.8-0.4l0.2-0.9l2.7,0.7l-0.2,0.8   c0.6,0.8,1.6,1.4,3.1,1.8l5.1,1.3l-1.5,5.9L184.5,173.5z M184.8,172.6l7.6,1.9l1-4l-4.3-1.1c-1.5-0.4-2.5-0.9-3.1-1.6L184.8,172.6   z"></path>		<path class="st1" d="M190.3,183.8l-0.3,0.9l-6-5.5c-1.2-1.1-1.5-2.2-1-3.6l0.8,0.3c-0.4,0.9-0.3,1.7,0.5,2.4l0.4,0.3l7.7-0.8   l-0.3,0.9l-6.5,0.7L190.3,183.8z"></path>		<path class="st1" d="M177.6,188.7l0.5-1.2l6.1-2.2l-4.2-1.9l0.4-0.9l8.8,4l-0.4,0.9l-4-1.8l2.2,5.8l-0.5,1.2l-2.4-6.1L177.6,188.7   z"></path>		<path class="st1" d="M174.5,196l-0.5,0.9l-2.4-1.4l0.5-0.8l1.6,0.9l3.5-6l8.3,4.8l-0.5,0.8l-7.6-4.3l-2.5,4.3l7.6,4.3l-0.5,0.8   L174.5,196z"></path>		<path class="st1" d="M168.9,202.6l6.4,4.6l-3.2-8.9l0.5-0.7l7.8,5.6l-0.6,0.8l-6.4-4.6l3.2,8.9l-0.5,0.7l-7.8-5.6L168.9,202.6z"></path>		<path class="st1" d="M163,209.5l5.9,5.2l-2.3-9.2l0.5-0.6l7.2,6.4l-0.6,0.7l-5.9-5.2l2.3,9.2l-0.5,0.6l-7.2-6.4L163,209.5z"></path>		<path class="st1" d="M160.6,224.8l-0.7,0.6l-6.3-7.3l0.7-0.6l2.6,3.1c0.4-0.9,0.9-1.6,1.6-2.2c0.7-0.6,1.4-0.9,2.2-0.8   c0.7,0,1.4,0.4,1.9,1l2.2,2.6l-0.7,0.6l-2.2-2.6c-0.7-0.8-1.8-0.9-2.8-0.1c-0.7,0.6-1.2,1.3-1.6,2.2L160.6,224.8z"></path>		<path class="st1" d="M151.8,220.6l-3.8,2.7l-0.5-0.7l4.6-3.3l5.6,7.8l-4.5,3.2l-0.5-0.7l3.7-2.7l-2-2.8l-3.5,2.5l-0.5-0.7l3.5-2.5   L151.8,220.6z"></path>		<path class="st1" d="M147.5,223.7c-0.6,0.3-1,0.7-1,1.3c0,0.6,0.3,1.5,1,2.7l2.7,4.6l-5.4,3.1l-4.9-8.3l0.8-0.5l4.4,7.5l3.7-2.2   l-2.3-3.9c-1.8-3.1-1.2-4.4,0.4-5.2L147.5,223.7z"></path>		<path class="st1" d="M134.1,229.7c1.3-0.6,2.5-0.6,3.8-0.1c1.3,0.5,2.2,1.4,2.7,2.7c0.6,1.3,0.6,2.5,0.1,3.8   c-0.5,1.3-1.4,2.2-2.6,2.8c-1.3,0.6-2.5,0.6-3.8,0.1c-1.3-0.5-2.2-1.4-2.7-2.6c-0.6-1.3-0.6-2.5-0.1-3.8   C131.9,231.1,132.8,230.2,134.1,229.7z M134.5,230.5c-1,0.5-1.8,1.2-2.1,2.2s-0.4,2.1,0.1,3.1c0.5,1,1.2,1.7,2.2,2.2   c1,0.4,2,0.4,3.1-0.1c1-0.5,1.8-1.2,2.1-2.2c0.4-1,0.4-2.1-0.1-3.1c-0.5-1-1.2-1.8-2.2-2.2C136.5,230,135.5,230.1,134.5,230.5z"></path>		<path class="st1" d="M122.5,236.9c-0.2-0.7-0.2-1.4,0.2-2c0.3-0.7,0.9-1.1,1.6-1.3l4-1.3l2.9,9.2l-3.7,1.2c-0.7,0.2-1.3,0.1-2-0.2   c-0.6-0.3-1.1-0.8-1.3-1.5c-0.3-0.9-0.1-1.6,0.5-2.3C123.7,238.5,122.8,237.9,122.5,236.9z M124.5,234.4c-0.5,0.1-0.8,0.4-1,0.9   c-0.2,0.4-0.3,0.9-0.1,1.4c0.1,0.5,0.4,0.8,0.9,1c0.4,0.2,0.9,0.3,1.3,0.1l3.1-1l-1.1-3.4L124.5,234.4z M130,240.8l-1-3.2   l-2.8,0.9c-0.4,0.1-0.7,0.4-0.9,0.8c-0.2,0.4-0.2,0.8-0.1,1.3c0.1,0.4,0.4,0.8,0.8,1s0.8,0.3,1.2,0.1L130,240.8z"></path>		<path class="st1" d="M119.5,235.7l-4.6,1l-0.2-0.9l5.5-1.2l2.1,9.4l-5.4,1.2l-0.2-0.9l4.5-1l-0.7-3.3l-4.2,0.9l-0.2-0.9l4.2-0.9   L119.5,235.7z"></path>		<path class="st1" d="M106.6,237l1.3-0.2l5.1,4l-0.6-4.6l1-0.1l1.3,9.5l-1,0.1l-0.6-4.4l-3.7,4.9l-1.3,0.2l4-5.3L106.6,237z"></path>		<path class="st1" d="M99.1,237.4l1,2.3l4.6-0.2l0.8-2.4l1,0l-3.3,9.8l-1,0l-4.1-9.5L99.1,237.4z M104.3,240.4l-3.9,0.2l2.2,5.1   L104.3,240.4z"></path>		<path class="st1" d="M82.8,236l-1.1,7.8l6.4-7l0.8,0.1l-1.4,9.5l-1-0.1l1.1-7.8l-6.4,7l-0.8-0.1l1.4-9.5L82.8,236z"></path>		<path class="st1" d="M75.5,235.7c0.6,1.2,0.8,2.5,0.4,3.8s-1.2,2.3-2.4,3c-1.2,0.6-2.5,0.8-3.9,0.3c-1.7-0.5-2.9-1.8-3.3-3.5   l1-0.2c0.2,1.3,1.2,2.4,2.6,2.8c1.1,0.3,2.2,0.3,3.2-0.3c1-0.5,1.6-1.3,1.9-2.4s0.2-2.1-0.3-3.1c-0.5-1-1.3-1.6-2.5-2   c-1.4-0.4-2.8-0.1-3.7,0.9l-0.7-0.7c1.2-1.2,3-1.6,4.7-1.1C73.8,233.7,74.9,234.5,75.5,235.7z"></path>		<path class="st1" d="M65.9,232.1l-4.3-1.8l0.3-0.8l5.2,2.1l-3.7,8.9l-5.2-2.1l0.3-0.8l4.3,1.7l1.3-3.2l-3.9-1.6l0.3-0.8l3.9,1.6   L65.9,232.1z"></path>		<path class="st1" d="M48.3,233.3l4.5-8.5l0.8,0.5l-3.8,7.2l5.6-3.4l0.1,0.1l0.3,6.6l3.8-7.2l0.8,0.5l-4.5,8.5l-1.1-0.6l-0.3-6.2   l-5.4,3.2L48.3,233.3z"></path>		<path class="st1" d="M49.9,224l-3.9-2.6l0.5-0.8l4.7,3.1l-5.4,8l-4.6-3.1l0.5-0.8l3.8,2.6l1.9-2.8l-3.5-2.4l0.5-0.8l3.5,2.4   L49.9,224z"></path>		<path class="st1" d="M40.6,215.9l-4.9,6.1l9.1-2.7l0.6,0.5l-6.1,7.5l-0.7-0.6l4.9-6.1l-9.1,2.7l-0.6-0.5l6.1-7.5L40.6,215.9z    M37.2,227l-0.5,0.6l-2.8-2.3l0.5-0.6L37.2,227z"></path>		<path class="st1" d="M27.2,216.4l-0.7-0.7l6.8-6.8l0.7,0.7l-3.2,3.2l3.7,3.7l3.2-3.2l0.7,0.7l-6.8,6.8l-0.7-0.7l3-3l-3.7-3.7   L27.2,216.4z"></path>		<path class="st1" d="M29.3,203.9c0.9,1.1,1.2,2.3,1.1,3.7c-0.2,1.4-0.8,2.5-1.9,3.3s-2.3,1.2-3.7,1.1c-1.4-0.1-2.5-0.8-3.3-1.8   c-0.9-1.1-1.2-2.3-1.1-3.7c0.1-1.4,0.8-2.5,1.8-3.3s2.3-1.2,3.7-1.1C27.3,202.2,28.5,202.8,29.3,203.9z M28.6,204.5   c-0.7-0.9-1.6-1.4-2.7-1.5c-1.1-0.1-2.1,0.2-3,0.9c-0.9,0.7-1.4,1.6-1.5,2.7s0.2,2.1,0.9,3c0.7,0.9,1.6,1.4,2.7,1.5   c1.1,0.1,2.1-0.2,3-0.9c0.9-0.7,1.4-1.6,1.5-2.7S29.3,205.4,28.6,204.5z"></path>		<path class="st1" d="M14.4,199.6l0.8-0.5l2.4,3.7l7.3-4.8l0.5,0.8l-8.1,5.3L14.4,199.6z"></path>		<path class="st1" d="M20.2,190c0.6,1.2,0.8,2.5,0.4,3.8c-0.4,1.3-1.2,2.3-2.4,2.9c-1.2,0.6-2.5,0.8-3.8,0.4   c-1.3-0.4-2.3-1.2-2.9-2.4c-0.6-1.2-0.8-2.5-0.4-3.8c0.4-1.3,1.2-2.3,2.4-2.9c1.2-0.6,2.5-0.8,3.8-0.4   C18.6,188,19.5,188.8,20.2,190z M19.4,190.4c-0.5-1-1.3-1.7-2.4-2s-2.1-0.2-3.1,0.3c-1,0.5-1.7,1.3-2,2.4c-0.3,1-0.2,2.1,0.3,3.1   c0.5,1,1.3,1.7,2.4,2s2.1,0.2,3.1-0.3s1.7-1.3,2-2.4C20,192.5,19.9,191.5,19.4,190.4z"></path>		<path class="st1" d="M11.4,176.4c0.8-0.3,1.5-0.2,2.2,0.2c0.7,0.4,1.2,1.1,1.5,2c0.6,1.7,0.1,3.1-0.9,3.9l-0.7-0.6   c0.8-0.6,1.3-1.5,0.8-3c-0.5-1.4-1.5-2-2.5-1.6c-1,0.4-1.5,1.4-1,2.6l0.4,1l-0.9,0.3l-0.3-0.7c-0.4-1.2-1.4-1.8-2.4-1.4   c-1,0.3-1.4,1.3-0.9,2.5c0.4,1.1,1.1,1.7,2.2,1.7l-0.2,0.9c-1.3-0.1-2.3-0.7-2.9-2.3c-0.3-0.9-0.3-1.6,0-2.3   c0.3-0.7,0.8-1.2,1.5-1.4c0.9-0.3,1.7-0.2,2.5,0.5C9.8,177.6,10.4,176.8,11.4,176.4z"></path>		<path class="st1" d="M10.9,167.8l-0.3-1l2.7-0.7l0.2,0.9l-1.8,0.5l1.7,6.7l1.8-0.5l0.2,0.9l-2.7,0.7l-0.2-0.8   c-0.9-0.4-2.1-0.5-3.6-0.1l-5.1,1.3L2.4,170L10.9,167.8z M11.1,168.8l-7.6,1.9l1,4l4.3-1.1c1.5-0.4,2.6-0.4,3.5-0.1L11.1,168.8z"></path>		<path class="st1" d="M10.8,161c0.2,1.4-0.1,2.6-0.9,3.7c-0.8,1.1-1.9,1.7-3.3,1.9c-1.4,0.2-2.6-0.1-3.7-0.9   c-1.1-0.8-1.7-1.9-1.9-3.3s0.1-2.6,1-3.7c0.8-1.1,1.9-1.7,3.3-1.9c1.4-0.2,2.6,0.1,3.7,0.9C10,158.6,10.6,159.7,10.8,161z    M9.9,161.2c-0.2-1.1-0.7-2-1.6-2.7c-0.9-0.7-1.9-0.9-3-0.7s-2,0.7-2.7,1.5c-0.7,0.9-0.9,1.9-0.8,3c0.2,1.1,0.7,2,1.6,2.7   c0.9,0.7,1.9,0.9,3,0.7c1.1-0.2,2-0.7,2.7-1.5S10,162.3,9.9,161.2z"></path>		<path class="st1" d="M0.2,151.6c0-0.9,0.2-1.6,0.8-2.2c0.6-0.6,1.3-0.9,2.1-0.9c0.9,0,1.6,0.2,2.2,0.8c0.6,0.6,0.9,1.3,0.9,2.1   l0.1,2.5l3.6-0.1l0,1L0.3,155L0.2,151.6z M5.3,151.4c0-0.6-0.2-1.1-0.6-1.4c-0.4-0.4-0.9-0.6-1.5-0.5c-0.6,0-1.1,0.2-1.5,0.6   c-0.4,0.4-0.6,0.9-0.6,1.5l0.1,2.5l4.2-0.1L5.3,151.4z"></path>		<path class="st1" d="M10,142.3c0,1.4-0.5,2.6-1.4,3.5c-1,1-2.1,1.4-3.5,1.4c-1.4,0-2.6-0.5-3.5-1.4c-1-1-1.5-2.1-1.5-3.5   s0.5-2.6,1.5-3.5c1-1,2.1-1.4,3.5-1.4c1.4,0,2.6,0.5,3.5,1.4C9.5,139.8,10,140.9,10,142.3z M9,142.3c0-1.1-0.4-2.1-1.2-2.9   c-0.8-0.8-1.7-1.2-2.9-1.2c-1.1,0-2.1,0.4-2.9,1.2c-0.8,0.8-1.2,1.7-1.2,2.9s0.4,2.1,1.2,2.9c0.8,0.8,1.7,1.2,2.9,1.2   c1.1,0,2.1-0.4,2.9-1.2C8.6,144.4,9,143.5,9,142.3z"></path>		<path class="st1" d="M7.1,128.8c0.7,0,1.4,0.3,1.9,0.8s0.8,1.2,0.8,1.9v4.2H0.2v-3.9c0-0.7,0.3-1.3,0.8-1.8   c0.5-0.5,1.1-0.8,1.8-0.8c0.9,0,1.6,0.4,2,1.1C5.2,129.4,6.1,128.8,7.1,128.8z M1.1,134.7h3.4v-2.9c0-0.5-0.2-0.8-0.5-1.1   c-0.3-0.3-0.7-0.5-1.2-0.5c-0.5,0-0.9,0.2-1.2,0.5c-0.3,0.3-0.5,0.7-0.5,1.1V134.7z M8.9,131.5c0-0.5-0.2-0.9-0.5-1.2   c-0.3-0.3-0.8-0.5-1.3-0.5c-0.5,0-0.9,0.2-1.3,0.5c-0.3,0.3-0.5,0.7-0.5,1.2v3.2h3.5V131.5z"></path>		<path class="st1" d="M3.7,123.7c0-0.9,0.3-1.6,0.9-2.2c0.6-0.6,1.3-0.9,2.2-0.9s1.6,0.3,2.2,0.9c0.6,0.6,0.9,1.3,0.9,2.2v3.4H0.2   v-1h3.6V123.7z M8.9,123.7c0-0.6-0.2-1.1-0.6-1.5c-0.4-0.4-0.9-0.6-1.5-0.6c-0.6,0-1.1,0.2-1.5,0.6c-0.4,0.4-0.6,0.9-0.6,1.5v2.5   h4.2V123.7z"></path>		<path class="st1" d="M0.2,113.1h9.6v1H5.9v2.3l3.8,2.6v1.1l-3.9-2.7c-0.1,0.7-0.4,1.3-1,1.7c-0.5,0.5-1.2,0.7-1.9,0.7   c-0.8,0-1.5-0.3-2-0.8c-0.6-0.6-0.9-1.3-0.9-2V113.1z M5,114.1h-4v2.9c0,0.5,0.2,1,0.6,1.4c0.4,0.4,0.9,0.6,1.4,0.6   c0.5,0,1-0.2,1.4-0.6C4.8,118,5,117.5,5,117V114.1z"></path>		<path class="st1" d="M6.6,105.8c-0.5,0.4-1,0.7-1.6,0.7c-0.6,0-1.1-0.2-1.6-0.7c-0.4-0.5-0.7-1-0.7-1.6c0-0.6,0.2-1.1,0.7-1.6   c0.4-0.4,0.9-0.7,1.6-0.7c0.6,0,1.2,0.2,1.6,0.7c0.4,0.4,0.7,0.9,0.7,1.6C7.2,104.8,7,105.4,6.6,105.8z"></path>	</g>	<path class="st1" d="M182.4,90.7c-0.2-1.4-0.4-2.8-0.6-4.2c0,0,0,0,0,0c-0.4-2.1-0.8-4.1-1.3-6.1c0,0,0,0,0,0  c-0.4-1.5-0.8-3-1.3-4.4c-0.3-1-0.6-1.9-1-2.9c-0.3-1-0.7-1.9-1.1-2.8c0,0,0,0,0,0c-0.6-1.4-1.2-2.8-1.8-4.2c0,0,0,0,0,0  c-0.3-0.7-0.7-1.4-1-2.1c-0.9-1.8-1.9-3.6-2.9-5.3c-8.1-13.9-20.1-25.2-34.5-32.5c0,0,0,0,0,0c-1.2-0.6-2.4-1.2-3.6-1.7  c-1.8-0.8-3.7-1.6-5.6-2.3c0,0,0,0,0,0c-0.5-0.2-1.1-0.4-1.6-0.6c-1.7-0.6-3.3-1.1-5-1.6c-0.5-0.1-1-0.3-1.5-0.4  c-1.5-0.4-3-0.7-4.5-1c-0.5-0.1-1-0.2-1.5-0.3c0,0,0,0,0,0c-1.4-0.3-2.8-0.5-4.2-0.6c-3.5-0.4-7.1-0.7-10.8-0.7s-7.2,0.2-10.8,0.7  c-1.4,0.2-2.8,0.4-4.2,0.6c0,0,0,0,0,0c-1.5,0.3-2.9,0.6-4.3,0.9c-0.5,0.1-0.9,0.2-1.4,0.4c-0.6,0.2-1.3,0.3-1.9,0.5  c-0.8,0.2-1.7,0.5-2.5,0.7c0,0,0,0,0,0c-0.9,0.3-1.7,0.6-2.6,0.9c-3.4,1.2-6.7,2.6-10,4.2c0,0,0,0,0,0c-1.7,0.9-3.4,1.8-5.1,2.8  c-0.9,0.5-1.8,1.1-2.7,1.6c-1.3,0.8-2.6,1.7-3.9,2.6c0,0,0,0,0,0C37.7,41,28.4,51.9,22.2,64.6v0c-0.6,1.2-1.1,2.3-1.6,3.5  c-0.3,0.6-0.5,1.2-0.7,1.8c-1.4,3.4-2.5,6.8-3.4,10.4c0,0,0,0,0,0c-0.5,2-1,4.1-1.3,6.1c0,0,0,0,0,0c-0.3,1.4-0.5,2.8-0.6,4.2  c-0.4,3.5-0.7,7.1-0.7,10.8v46.7c0,3.6,0.2,7.2,0.7,10.8c0.2,1.4,0.4,2.8,0.6,4.2c0,0,0,0,0,0c0.3,1.7,0.6,3.3,1,4.9  c0.7,2.7,1.4,5.3,2.3,7.9c0.8,2.2,1.6,4.3,2.5,6.4c0.8,1.8,1.7,3.6,2.6,5.4c1.2,2.2,2.4,4.3,3.8,6.4c1.2,1.9,2.5,3.7,3.8,5.4  c1.7,2.2,3.5,4.4,5.4,6.4c1.8,1.9,3.6,3.7,5.6,5.4c2.6,2.3,5.3,4.4,8.1,6.4c6.9,4.8,14.6,8.6,22.9,11.1c0,0,0,0,0,0  c0.8,0.3,1.7,0.5,2.5,0.7c2.5,0.7,5.1,1.3,7.7,1.7c0,0,0,0,0,0c1.4,0.3,2.8,0.5,4.2,0.6c3.5,0.4,7.1,0.7,10.8,0.7l10.8-0.7  c1.4-0.2,2.8-0.4,4.2-0.6c0,0,0,0,0,0c0.8-0.1,1.5-0.3,2.3-0.4c1.1-0.2,2.2-0.5,3.3-0.8c1.1-0.3,2.2-0.6,3.3-0.9c0,0,0,0,0,0  c8.7-2.5,16.8-6.5,24.1-11.5c2.8-2,5.6-4.1,8.1-6.4c1.3-1.1,2.5-2.3,3.7-3.4c0.7-0.7,1.3-1.3,1.9-2c1.9-2,3.7-4.2,5.4-6.4  c1.3-1.8,2.6-3.6,3.8-5.4c1.4-2.1,2.6-4.2,3.8-6.4c0.9-1.8,1.8-3.6,2.6-5.4c0.9-2.1,1.8-4.2,2.5-6.4c1.5-4.1,2.6-8.4,3.4-12.8  c0,0,0,0,0,0c0.3-1.4,0.5-2.8,0.6-4.2c0.4-3.5,0.7-7.1,0.7-10.8v-46.7C183,97.8,182.8,94.2,182.4,90.7z M98.4,226.3  c-12.8,0-24.8-3.1-35.5-8.5c-3.6-1.9-7.1-4-10.4-6.4c-2.3-1.7-4.5-3.5-6.7-5.4c-2.2-2-4.3-4.1-6.3-6.4c-1.5-1.7-3-3.6-4.3-5.4  c-1.5-2.1-2.9-4.2-4.2-6.4c-1-1.8-2-3.6-2.9-5.4c-1-2.1-2-4.2-2.8-6.4c-3.3-8.6-5.1-18-5.1-27.8v-46.7c0-43.1,35.1-78.2,78.2-78.2  c43.1,0,78.2,35.1,78.2,78.2v46.7c0,9.8-1.8,19.2-5.1,27.8c-0.8,2.2-1.8,4.3-2.8,6.4c-0.9,1.9-1.9,3.7-2.9,5.4  c-1.3,2.2-2.7,4.3-4.2,6.4c-1.4,1.9-2.8,3.7-4.3,5.4c-2,2.2-4.1,4.4-6.3,6.4c-2.1,1.9-4.3,3.7-6.7,5.4c-3.3,2.4-6.8,4.5-10.4,6.4  C123.3,223.3,111.2,226.3,98.4,226.3z"></path>	<g>		<path class="st0" d="M100.6,119.1l7.7,10.7l-5.2,3.8l-2.6-3.5V176h4.3v-29.6c0-5.8,3.6-17.9,17.3-22.5c16.1-5.3,28.4-0.1,29,0.1   l-2.5,5.9c-0.1,0-5.1-2.1-12.6-1.9l4.9,4.9l-4.5,4.5l-8.4-8.4c-1.2,0.3-2.5,0.6-3.8,1c-0.5,0.2-1,0.4-1.5,0.6l4.6,5.7l-5,4   l-5.1-6.4c-5.8,5.2-5.9,12.3-5.9,12.4V176h53.3c-0.9,2.2-2,4.3-3.1,6.4H35.3c-1.1-2.1-2.2-4.2-3.1-6.4h51.3v-29.6   c0-0.4-0.2-7.3-5.9-12.4l-5.2,6.4l-5-4l4.6-5.7c-0.5-0.2-1-0.4-1.5-0.6c-1.3-0.4-2.5-0.8-3.7-1l-8.4,8.4l-4.5-4.5l4.9-4.9   c-7.6-0.2-12.6,1.9-12.6,2l-2.5-5.9c0.5-0.2,12.9-5.4,29-0.1c13.7,4.5,17.3,16.7,17.3,22.5V176h4.3v-45.9l-2.5,3.5l-5.2-3.8   l7.7-10.6l0-5.1c-0.8-7.2-6.4-15.9-13-23.9l-18.5,0.5l-8.1,14.8l-5.6-3.1l6.3-11.5L47.7,91l-0.1-6.4l28.1-0.7   C70,77.8,64.2,72.5,60.6,69.5l4.1-4.9c0.6,0.5,6.8,5.7,13.9,13.1l1.5-7.5l6.3,1.3L84,83.6c3.7,4.3,7.3,8.9,10.3,13.7V81   c0-12.2-11.5-23.2-11.7-23.3l4.4-4.7c0.4,0.4,6.6,6.2,10.5,14.7c3.9-8.4,10.1-14.3,10.5-14.7l4.4,4.7   c-0.1,0.1-11.6,11.1-11.6,23.3h0v16.3c2.9-4.8,6.6-9.5,10.3-13.7l-2.5-12.1l6.3-1.3l1.5,7.5c7.1-7.4,13.3-12.6,13.9-13.1l4.1,4.9   c-3.6,3-9.3,8.2-15.1,14.4l28.1,0.7l-0.2,6.4l-7.6-0.2l6.3,11.5l-5.6,3.1l-8.1-14.8l-18.5-0.5c-6.6,8-12.2,16.7-13,23.9   L100.6,119.1z"></path>		<path class="st0" d="M158.3,187.8H38.6c1.5,2.2,3.1,4.4,4.8,6.4h110.2C155.2,192.1,156.8,190,158.3,187.8z"></path>		<path class="st0" d="M148.5,199.6H48.4c2.4,2.3,4.9,4.4,7.5,6.4h85C143.6,204,146.1,201.9,148.5,199.6z"></path>		<path class="st0" d="M81,217.8h34.8c5.8-1.4,11.4-3.6,16.5-6.4H64.5C69.7,214.2,75.2,216.4,81,217.8z"></path>		<path class="st0" d="M38.5,112.8L40,119c0.2-0.1,24.6-5.5,37,0.9c1,0.5,3.3,1.7,5.6,1.7c1.3,0,2.6-0.4,3.6-1.5   c2.8-3,0.9-9.9-5.5-20.3l-5.4,3.4c2.6,4.1,4.8,8.8,5.6,11.5c-0.3-0.1-0.6-0.3-1-0.5C65.4,106.7,39.6,112.6,38.5,112.8z"></path>		<path class="st0" d="M156.3,112.8c-1.1-0.3-26.8-6.1-41.4,1.5c-0.4,0.2-0.7,0.4-1,0.5c0.8-2.6,3-7.3,5.6-11.5l-5.4-3.4   c-6.5,10.4-8.4,17.3-5.5,20.3c1,1.1,2.3,1.5,3.6,1.5c2.3,0,4.6-1.2,5.6-1.7c12.4-6.5,36.8-1,37-0.9L156.3,112.8z"></path>		<path class="st0" d="M97.4,58.1c1.3-0.8,2-1.7,2.5-2.5c0.5-0.8,0.7-1.7,0.7-2.5s-0.2-1.7-0.7-2.5c-0.5-0.8-1.2-1.7-2.5-2.5   c-1.3,0.8-2,1.7-2.5,2.5c-0.5,0.8-0.7,1.7-0.7,2.5c0,0.8,0.2,1.7,0.7,2.5C95.4,56.4,96.1,57.3,97.4,58.1z"></path>		<path class="st0" d="M123.1,63.4c0.9-0.3,1.7-0.7,2.2-1.3c0.6-0.6,1-1.3,1.3-2.2c0.2-0.9,0.3-2,0-3.5c-1.5-0.3-2.6-0.2-3.5,0   c-0.9,0.3-1.7,0.7-2.2,1.3c-0.6,0.6-1,1.3-1.3,2.2c-0.2,0.9-0.3,2,0,3.5C121.1,63.8,122.2,63.7,123.1,63.4z"></path>		<path class="st0" d="M143.1,79.5c0.7-0.4,1.4-1,1.9-1.7c0.5-0.8,0.9-1.8,1.1-3.4c-1.3-0.8-2.4-1-3.4-1.1c-0.9,0-1.8,0.1-2.5,0.5   c-0.7,0.4-1.4,0.9-1.9,1.7c-0.5,0.8-0.9,1.8-1.1,3.4c1.3,0.8,2.4,1,3.4,1.1C141.5,80,142.3,79.8,143.1,79.5z"></path>		<path class="st0" d="M126.4,140.6c-0.7,0.6-1.2,1.3-1.5,2.1c-0.3,0.8-0.4,1.6-0.2,2.6c0.2,0.9,0.5,2,1.5,3.2   c1.5-0.3,2.5-0.9,3.2-1.5c0.7-0.6,1.2-1.3,1.5-2.1c0.3-0.8,0.4-1.6,0.2-2.6c-0.2-1-0.5-2-1.5-3.2   C128.1,139.5,127.1,140,126.4,140.6z"></path>		<path class="st0" d="M128.7,106.1c0.9,0.4,1.9,0.7,3.5,0.5c0.6-1.5,0.7-2.5,0.6-3.5c-0.1-0.9-0.4-1.7-0.9-2.4   c-0.5-0.7-1.2-1.2-2-1.6c-0.9-0.4-1.9-0.7-3.5-0.5c-0.6,1.5-0.6,2.5-0.6,3.5c0.1,0.9,0.4,1.7,0.9,2.4   C127.2,105.1,127.8,105.7,128.7,106.1z"></path>		<path class="st0" d="M149,132.2c-0.9-0.4-1.9-0.7-3.5-0.5c-0.6,1.4-0.7,2.5-0.6,3.5c0.1,0.9,0.4,1.7,0.9,2.4   c0.5,0.7,1.2,1.2,2,1.6c0.9,0.4,1.9,0.6,3.5,0.5c0.6-1.5,0.7-2.5,0.6-3.5c-0.1-0.9-0.4-1.7-0.9-2.4   C150.5,133.1,149.8,132.6,149,132.2z"></path>		<path class="st0" d="M157.2,107.2c0.8-0.2,1.5-0.7,2.2-1.4c0.7-0.7,1.2-1.6,1.6-3.1c-1.2-1-2.2-1.4-3.1-1.7   c-0.9-0.2-1.8-0.2-2.6,0.1c-0.8,0.2-1.5,0.7-2.2,1.4c-0.6,0.7-1.2,1.6-1.6,3.1c1.2,1,2.2,1.4,3.1,1.7   C155.5,107.5,156.4,107.5,157.2,107.2z"></path>		<path class="st0" d="M69.5,62.2c0.6,0.6,1.3,1,2.2,1.3c0.9,0.2,2,0.3,3.5,0c0.4-1.5,0.3-2.6,0-3.5C75,59,74.6,58.2,74,57.6   c-0.6-0.6-1.3-1-2.2-1.3c-0.9-0.2-2-0.3-3.5,0c-0.4,1.5-0.2,2.6,0,3.5C68.4,60.8,68.9,61.6,69.5,62.2z"></path>		<path class="st0" d="M51.8,79.5c0.7,0.4,1.6,0.6,2.5,0.5c1-0.1,2-0.3,3.4-1.1c-0.1-1.6-0.6-2.5-1.1-3.4c-0.5-0.8-1.2-1.4-1.9-1.7   c-0.7-0.4-1.6-0.6-2.5-0.5c-1,0.1-2,0.3-3.4,1.1c0.1,1.6,0.6,2.5,1.1,3.4C50.4,78.5,51,79.1,51.8,79.5z"></path>		<path class="st0" d="M65.4,147c0.7,0.6,1.7,1.2,3.2,1.5c1-1.2,1.3-2.2,1.5-3.2c0.1-0.9,0.1-1.8-0.2-2.6c-0.3-0.8-0.8-1.5-1.5-2.1   c-0.7-0.6-1.7-1.2-3.2-1.5c-1,1.2-1.3,2.2-1.5,3.2c-0.2,0.9-0.1,1.8,0.2,2.6C64.2,145.7,64.7,146.4,65.4,147z"></path>		<path class="st0" d="M66.1,106.1c0.9-0.4,1.5-0.9,2-1.6c0.5-0.7,0.8-1.5,0.9-2.4c0.1-1,0-2-0.6-3.5c-1.6-0.1-2.6,0.1-3.5,0.5   c-0.9,0.4-1.5,0.9-2,1.6c-0.5,0.7-0.8,1.5-0.9,2.4c-0.1,1,0,2,0.6,3.5C64.2,106.7,65.2,106.4,66.1,106.1z"></path>		<path class="st0" d="M47,139.2c0.9-0.4,1.5-0.9,2-1.6c0.5-0.7,0.8-1.5,0.9-2.4c0.1-1,0-2-0.6-3.5c-1.6-0.1-2.6,0.2-3.5,0.5   c-0.9,0.4-1.5,0.9-2,1.6c-0.5,0.7-0.8,1.5-0.9,2.4c-0.1,1,0,2,0.6,3.5C45.1,139.8,46.1,139.6,47,139.2z"></path>		<path class="st0" d="M37.7,107.2c0.8,0.2,1.7,0.3,2.6,0.1c0.9-0.2,1.9-0.6,3.1-1.7c-0.4-1.5-1-2.4-1.6-3.1   c-0.7-0.7-1.4-1.2-2.2-1.4c-0.8-0.3-1.7-0.3-2.6-0.1c-0.9,0.2-1.9,0.6-3.1,1.7c0.4,1.5,1,2.4,1.6,3.1   C36.1,106.5,36.9,107,37.7,107.2z"></path>	</g></g></svg>