<svg xmlns="http://www.w3.org/2000/svg" xmlns:xlink="http://www.w3.org/1999/xlink" id="Layer_1" x="0px" y="0px" viewBox="0 0 201.7 249.3" style="enable-background:new 0 0 201.7 249.3;" xml:space="preserve"><style type="text/css">	.st0{fill:#FFFFFF;}</style><g>	<path class="st0" d="M19,57c-0.8,0.2-1.5,0.1-2.2-0.3c-0.7-0.4-1.1-0.9-1.3-1.7c-0.2-0.8-0.1-1.5,0.3-2.2c0.4-0.7,0.9-1.1,1.7-1.3  c0.7-0.2,1.4-0.1,2.1,0.2c0.7,0.4,1.1,1,1.4,1.7c0.2,0.7,0.1,1.4-0.2,2.1C20.3,56.4,19.7,56.8,19,57z"></path>	<g>		<path class="st0" d="M0.2,93.7l0.3-3.1l12,1l-0.3,3.1L0.2,93.7z"></path>		<path class="st0" d="M3.3,74.6L15.1,77l-0.6,3l-6.4-1.3l4.2,3.8l-0.1,0.3l-5.3,1.9l6.4,1.3l-0.6,3L0.8,86.6l0.6-3l5.7-2l-4.4-4.1   L3.3,74.6z"></path>		<path class="st0" d="M14.7,73.4c-1.5,0.7-3.2,0.7-4.8,0.1c-1.7-0.6-2.9-1.7-3.6-3.2c-0.7-1.5-0.8-3.2-0.1-4.9c0.4-1,1-1.9,1.8-2.6   s1.7-1.1,2.7-1.3l0.5,3c-1,0.1-1.8,0.9-2.2,1.9c-0.3,0.9-0.3,1.7,0,2.5c0.4,0.8,1,1.3,1.9,1.6c0.9,0.3,1.8,0.3,2.5,0   c0.8-0.4,1.3-1,1.7-1.9c0.4-1.1,0.2-2.1-0.4-2.9l2.4-2c1.3,1.6,1.6,3.8,0.9,5.9C17.3,71.4,16.2,72.7,14.7,73.4z"></path>		<path class="st0" d="M18.3,42.9l1.8-2.5l9.8,7.1L28.1,50L18.3,42.9z"></path>		<path class="st0" d="M28.4,44.7l0.6-3c1.1,0.4,2,0.1,2.8-0.8c0.6-0.7,0.7-1.3,0.3-1.6c-0.3-0.2-0.7-0.2-1.2,0.1   c-0.2,0.1-0.7,0.4-1.3,0.8c-1.9,1.3-3.6,1.6-5.2,0.2c-0.8-0.7-1.3-1.6-1.3-2.7c0-1.1,0.4-2,1.2-2.9c1.3-1.5,3.1-2.1,5-1.6l-0.5,3   c-0.9-0.3-1.7-0.1-2.2,0.5c-0.5,0.6-0.5,1.1-0.1,1.4c0.4,0.3,0.9,0.2,2.3-0.7c0.5-0.3,0.9-0.6,1.3-0.8c0.4-0.2,0.8-0.3,1.3-0.5   c1-0.3,1.9,0,2.8,0.8c0.9,0.8,1.3,1.7,1.3,2.8c0,1.1-0.5,2.1-1.4,3.2C32.2,44.9,30.2,45.4,28.4,44.7z"></path>		<path class="st0" d="M42.1,34.3l-4.2-1.4l-0.8,0.7l2.6,2.9l-2.3,2.1l-8.2-8.9l3.6-3.3c0.9-0.8,1.9-1.2,3.1-1.2   c1.1,0,2.1,0.5,2.9,1.3c1,1.1,1.3,2.5,0.8,3.9l4.9,1.6L42.1,34.3z M33.5,29.6l1.8,2l1.3-1.2c0.6-0.5,0.6-1.3,0-1.9   c-0.5-0.6-1.3-0.6-1.9-0.1L33.5,29.6z"></path>		<path class="st0" d="M51.6,27l-1.4-1.1l-3.3,2.3l0.6,1.7l-2.7,1.9L41,19.7l3.1-2.2l10.2,7.5L51.6,27z M46,25.6l2-1.4l-3.4-2.6   L46,25.6z"></path>		<path class="st0" d="M56.4,20.7l4.1-2.2l1.4,2.5l-6.8,3.7l-5.8-10.6l6.7-3.7l1.4,2.5l-4,2.2l0.8,1.5l3.6-2l1.4,2.5l-3.6,2   L56.4,20.7z"></path>		<path class="st0" d="M64.9,16.4l3.8-1.6l1.2,2.7l-6.7,2.8L58.6,9.3l2.8-1.2L64.9,16.4z"></path>		<path class="st0" d="M67.2,5.8l2.9-1L74,16.3l-2.9,1L67.2,5.8z"></path>		<path class="st0" d="M89.6,0.5l2.1,11.9l-3,0.5l-1.1-6.4l-2.1,5.3l-0.3,0.1l-3.7-4.3l1.1,6.4l-3,0.5L77.5,2.6l3-0.5l3.9,4.6   L86.6,1L89.6,0.5z"></path>		<path class="st0" d="M96.6,9.4l4.7-0.2l0.1,2.9l-7.8,0.3L93.1,0.3l7.7-0.3l0.1,2.9l-4.6,0.2l0.1,1.7l4.2-0.2l0.1,2.8l-4.2,0.2   L96.6,9.4z"></path>		<path class="st0" d="M108.7,0.4c1.7,0.1,3,0.8,4,2.1c1,1.2,1.5,2.7,1.3,4.4c-0.1,1.7-0.8,3.1-2,4.2c-1.2,1.1-2.6,1.5-4.3,1.4   l-4.9-0.4l1-12L108.7,0.4z M108,9.5c0.8,0.1,1.5-0.2,2.1-0.7c0.6-0.5,0.9-1.2,1-2.2c0.1-0.9-0.1-1.7-0.6-2.3c-0.5-0.6-1.1-0.9-2-1   l-1.7-0.1l-0.5,6.1L108,9.5z"></path>		<path class="st0" d="M117.1,1.4l3,0.5L118,13.8l-3-0.5L117.1,1.4z"></path>		<path class="st0" d="M121.6,13c-0.8-1.5-1-3.1-0.5-4.8c0.5-1.7,1.5-3,2.9-3.8c1.5-0.8,3.1-1,4.8-0.5c1,0.3,2,0.8,2.7,1.6   s1.3,1.6,1.5,2.6l-3,0.7c-0.2-0.9-1-1.7-2.1-2c-0.9-0.3-1.8-0.2-2.5,0.2c-0.7,0.4-1.2,1.1-1.5,2c-0.3,0.9-0.2,1.8,0.2,2.5   c0.4,0.7,1.1,1.2,2,1.5c1.1,0.3,2.1,0.1,2.8-0.6l2.1,2.2c-1.5,1.4-3.7,1.9-5.8,1.3C123.7,15.4,122.4,14.4,121.6,13z"></path>		<path class="st0" d="M138.3,20.5l0.2-1.8l-3.7-1.6l-1.2,1.4l-3.1-1.3l8.5-9.5l3.4,1.5l-1.2,12.7L138.3,20.5z M136.6,14.9l2.2,1   l0.5-4.3L136.6,14.9z"></path>		<path class="st0" d="M146.3,21.3l3.6,2.1l-1.5,2.6l-6.3-3.6l6-10.5l2.7,1.5L146.3,21.3z"></path>		<path class="st0" d="M154.6,28.4c-0.2-1.7,0.3-3.2,1.5-4.6s2.5-2.2,4.2-2.4c1.7-0.2,3.2,0.3,4.6,1.5c0.8,0.7,1.5,1.5,1.9,2.5   c0.4,1,0.5,2,0.4,3l-3-0.5c0.2-0.9-0.2-2-1.1-2.7c-0.7-0.6-1.5-0.9-2.4-0.8c-0.8,0.1-1.6,0.5-2.2,1.3c-0.6,0.8-0.9,1.6-0.8,2.4   c0.1,0.8,0.5,1.6,1.3,2.2c0.9,0.7,1.9,0.9,2.9,0.5l1.1,2.9c-1.9,0.7-4.1,0.3-5.9-1.1C155.6,31.5,154.8,30,154.6,28.4z"></path>		<path class="st0" d="M166.1,36.8l3.3,3.4l-2.1,2l-5.4-5.6l8.7-8.4l5.3,5.5l-2.1,2l-3.2-3.3l-1.2,1.2l2.9,3l-2,2l-2.9-3L166.1,36.8   z"></path>		<path class="st0" d="M181.9,41.2l1.9,2.4l-9.6,7.3l-1.4-1.9L175,42l-4.8,3.7l-1.9-2.5l9.6-7.3l1.5,1.9l-2.2,7.1L181.9,41.2z"></path>		<path class="st0" d="M189.8,53.6l-2.6,1.5l-1.5-2.6l-7.8,4.6l-1.6-2.7l7.8-4.6l-1.5-2.6l2.6-1.5L189.8,53.6z"></path>		<path class="st0" d="M183.8,62.4l1.9,4.3l-2.6,1.2l-3.2-7.1l11-5l3.2,7l-2.6,1.2l-1.9-4.2l-1.5,0.7l1.7,3.8l-2.6,1.2l-1.7-3.8   L183.8,62.4z"></path>		<path class="st0" d="M185.6,75.2l3.1-3.2l-0.3-1l-3.7,1.2l-1-2.9l11.5-3.7l1.5,4.6c0.4,1.2,0.3,2.3-0.2,3.3   c-0.5,1-1.3,1.7-2.4,2.1c-1.4,0.4-2.8,0.1-3.9-0.9l-3.5,3.7L185.6,75.2z M193.4,69.3l-2.6,0.8l0.5,1.6c0.2,0.7,0.9,1.1,1.7,0.8   c0.8-0.3,1.1-0.9,0.9-1.7L193.4,69.3z"></path>	</g>	<path class="st0" d="M191.8,83.4c0.5-0.6,1.1-1,1.9-1.2c0.8-0.1,1.5,0,2.1,0.5c0.6,0.5,1,1.1,1.2,1.9c0.1,0.8,0,1.5-0.5,2.1  c-0.4,0.6-1,1-1.8,1.1c-0.8,0.1-1.5,0-2.1-0.5c-0.6-0.4-1-1-1.1-1.8C191.2,84.7,191.3,84,191.8,83.4z"></path>	<path class="st0" d="M189.4,102.1l4.8-2.9l-0.1-3.4l-4.8,0.1l0-1.2l12.1-0.3l0.1,4.8c0,1-0.3,1.9-1,2.6c-0.7,0.7-1.5,1.1-2.5,1.1  c-0.8,0-1.6-0.2-2.2-0.7c-0.7-0.5-1.1-1.1-1.3-1.8l-4.9,3.1L189.4,102.1z M200.2,95.6l-5,0.1l0.1,3.6c0,0.7,0.3,1.2,0.8,1.7  c0.5,0.5,1.1,0.7,1.8,0.7c0.7,0,1.3-0.3,1.7-0.8c0.5-0.5,0.7-1.1,0.7-1.7L200.2,95.6z"></path>	<path class="st0" d="M190.5,106.4v5.9h-1.1v-7.1h12.1v7h-1.1v-5.8H196v5.3h-1.1v-5.3H190.5z"></path>	<path class="st0" d="M201.4,118.7c0,1.1-0.4,2-1.1,2.7s-1.6,1.1-2.7,1.1c-1.1,0-2-0.4-2.7-1.1s-1.1-1.6-1.1-2.7v-3.1h-4.5v-1.2  h12.1V118.7z M195,118.7c0,0.7,0.2,1.4,0.7,1.8c0.5,0.5,1.1,0.7,1.9,0.7s1.4-0.2,1.9-0.7c0.5-0.5,0.8-1.1,0.8-1.8v-3.1H195V118.7z"></path>	<path class="st0" d="M189.4,131.9l4.8-2.8v-3.4h-4.8v-1.2h12.1v4.8c0,1-0.4,1.8-1.1,2.6c-0.7,0.7-1.6,1.1-2.6,1.1  c-0.8,0-1.6-0.2-2.2-0.7c-0.6-0.5-1.1-1.1-1.3-1.9l-5,3V131.9z M200.3,125.7h-5v3.6c0,0.7,0.2,1.2,0.7,1.7c0.5,0.5,1.1,0.7,1.8,0.7  c0.7,0,1.3-0.2,1.8-0.7c0.5-0.5,0.7-1,0.7-1.7V125.7z"></path>	<path class="st0" d="M189.2,140.6c0-1.7,0.6-3.2,1.8-4.4c1.2-1.2,2.7-1.8,4.4-1.8s3.2,0.6,4.4,1.8c1.2,1.2,1.8,2.7,1.8,4.4  s-0.6,3.2-1.8,4.4c-1.2,1.2-2.7,1.8-4.4,1.8s-3.2-0.6-4.4-1.8C189.8,143.8,189.2,142.3,189.2,140.6z M190.3,140.6  c0,1.4,0.5,2.6,1.5,3.6c1,1,2.2,1.4,3.6,1.4c1.4,0,2.6-0.5,3.6-1.4c1-1,1.5-2.2,1.5-3.6S200,138,199,137c-1-1-2.2-1.4-3.6-1.4  c-1.4,0-2.6,0.5-3.6,1.4C190.8,138,190.3,139.2,190.3,140.6z"></path>	<path class="st0" d="M201.3,154.3c-0.1,1.6-0.8,3-2,4c-1.2,1-2.7,1.5-4.4,1.4s-3.1-0.7-4.2-1.9c-1.1-1.1-1.6-2.5-1.5-4.2l0.3-4.6  l12.1,0.7L201.3,154.3z M190.4,153.6c-0.1,1.3,0.3,2.4,1.2,3.3c0.9,0.9,2,1.4,3.4,1.5c1.4,0.1,2.6-0.3,3.6-1.1  c1-0.8,1.5-1.8,1.6-3.2l0.2-3.4l-9.8-0.6L190.4,153.6z"></path>	<path class="st0" d="M200.5,163.3l-0.2,1.2l-7.8-1.5c-1.9-0.4-3.3,0.6-3.7,2.6c-0.4,2,0.6,3.4,2.5,3.8l7.8,1.5l-0.2,1.2l-7.8-1.5  c-1.3-0.2-2.2-0.9-2.8-1.8c-0.6-1-0.8-2.1-0.5-3.4s0.8-2.3,1.8-3s2-0.9,3.3-0.6L200.5,163.3z"></path>	<path class="st0" d="M187.4,173.9c1.5-0.7,3.1-0.8,4.8-0.3c1.6,0.6,2.9,1.6,3.6,3.1s0.8,3.1,0.2,4.9c-0.7,2.1-2.5,3.6-4.5,4  l-0.2-1.2c1.6-0.2,3-1.5,3.6-3.2c0.5-1.4,0.4-2.8-0.2-4c-0.6-1.2-1.6-2.1-2.9-2.5c-1.4-0.5-2.6-0.4-3.9,0.2s-2.1,1.6-2.6,3  c-0.6,1.7-0.2,3.5,0.9,4.7l-0.9,0.8c-1.4-1.5-1.9-3.8-1.1-5.9C184.8,175.9,185.9,174.7,187.4,173.9z"></path>	<path class="st0" d="M189.5,196.4l-1-0.5l1.6-3.3l-9.8-4.8l0.5-1.1l9.8,4.8l1.6-3.3l1,0.5L189.5,196.4z"></path>	<path class="st0" d="M188.1,198.7l-0.6,1l-10.4-6.1l0.6-1L188.1,198.7z"></path>	<path class="st0" d="M173.8,198.7l12.4,3.3l-0.8,1.1l-10.7-2.9l6.4,9.1l-0.8,1.1l-7.4-10.6L173.8,198.7z"></path>	<path class="st0" d="M169.6,206.2l-3.9,4.4l-0.9-0.8l4.7-5.3l9.1,8l-4.6,5.3l-0.9-0.8l3.8-4.3l-3.2-2.8l-3.5,4l-0.9-0.8l3.5-4  L169.6,206.2z"></path>	<path class="st0" d="M159.2,230.7l-7.5-9.4l0.9-0.8l6.4,8l-1.1-8.2l0.1-0.1l7.7,2.9l-6.4-8l0.9-0.8l7.5,9.4l-1.2,0.9l-7.3-2.7  l1.1,7.8L159.2,230.7z"></path>	<path class="st0" d="M148.9,224.3l-5,3l-0.6-1l6-3.7l6.3,10.3l-6,3.6l-0.6-1l4.9-3l-2.2-3.7l-4.6,2.8l-0.6-1l4.6-2.8L148.9,224.3z"></path>	<path class="st0" d="M142.2,240.3c-1.5,0.7-3,0.7-4.4,0.1c-1.5-0.6-2.5-1.7-3.2-3.2c-0.7-1.5-0.8-3.1-0.3-4.6  c0.5-1.5,1.5-2.6,3-3.3l4.2-1.9l5,11L142.2,240.3z M137.7,230.3c-1.2,0.5-2,1.4-2.4,2.6c-0.4,1.2-0.3,2.4,0.3,3.7  c0.6,1.3,1.4,2.1,2.6,2.7c1.2,0.5,2.3,0.5,3.5,0l3.1-1.4l-4-8.9L137.7,230.3z"></path>	<path class="st0" d="M133.9,243.6l-1.1,0.4l-3.9-11.4l1.1-0.4L133.9,243.6z"></path>	<path class="st0" d="M125.6,235.4c1.4,0.9,2.4,2.2,2.8,3.9c0.4,1.7,0.2,3.3-0.7,4.7c-0.9,1.5-2.2,2.4-4,2.8  c-2.2,0.5-4.4-0.1-5.8-1.7l0.9-0.9c1.1,1.2,2.9,1.8,4.6,1.4c1.5-0.3,2.6-1.1,3.2-2.3s0.9-2.4,0.6-3.8c-0.3-1.4-1.1-2.4-2.2-3.2  c-1.2-0.7-2.5-0.9-3.9-0.6c-1.7,0.4-3.1,1.7-3.5,3.3l-1.2-0.3c0.5-2,2.2-3.6,4.4-4.1C122.5,234.2,124.2,234.5,125.6,235.4z"></path>	<path class="st0" d="M115.4,248.2l-1.2,0.2l-1.7-12l1.2-0.2L115.4,248.2z"></path>	<path class="st0" d="M102.6,249.3l-1.2,0.1l-0.6-12.1l1-0.1l7.2,9.5l-0.5-9.8l1.2-0.1l0.6,12.1l-1,0.1l-7.2-9.5L102.6,249.3z"></path>	<path class="st0" d="M96.8,238.2l-5.9-0.4l0.1-1.1l7.1,0.5l-0.8,12l-7-0.5l0.1-1.1l5.8,0.4l0.3-4.3l-5.3-0.3l0.1-1.1l5.3,0.3  L96.8,238.2z"></path>	<path class="st0" d="M76.8,234l0.4,3.1l5.6,1.3l1.8-2.6l1.2,0.3l-7.2,10.7l-1.2-0.3l-1.8-12.8L76.8,234z M82.2,239.4l-4.7-1.1  l0.9,6.8L82.2,239.4z"></path>	<path class="st0" d="M62.6,241.8l-1.1-0.4l4.2-11.3l1,0.4l2.9,11.6l3.4-9.2l1.1,0.4l-4.2,11.3l-1-0.4l-2.9-11.6L62.6,241.8z"></path>	<path class="st0" d="M53.4,237.4c-1.4-0.8-2.4-1.9-2.8-3.5c-0.4-1.5-0.2-3,0.6-4.5c0.8-1.5,1.9-2.5,3.5-3c1.5-0.5,3-0.4,4.4,0.4  l4.1,2.2l-5.7,10.6L53.4,237.4z M58.5,227.8c-1.2-0.6-2.3-0.7-3.5-0.3s-2.1,1.3-2.8,2.5c-0.7,1.2-0.8,2.4-0.5,3.7  c0.3,1.2,1,2.2,2.2,2.8l3,1.6l4.6-8.6L58.5,227.8z"></path>	<path class="st0" d="M36.7,224.9l4.4,3.4l2.7-3.5l-4.2-3.3l0.7-0.9l4.2,3.3l3.3-4.2l1,0.7l-7.4,9.5l-5.4-4.2L36.7,224.9z"></path>	<path class="st0" d="M36.4,209.7l-1.2,2.9l4.1,4l2.9-1.4l0.9,0.9l-11.7,5.5l-0.9-0.9l5-11.9L36.4,209.7z M38.2,217.1l-3.5-3.4  L32,220L38.2,217.1z"></path>	<path class="st0" d="M18.1,206.4l9.5-7.5l0.7,0.9l-8.1,6.3l8.2-1.1l0.1,0.1l-2.9,7.7l8.1-6.3l0.7,0.9l-9.5,7.5l-0.9-1.2l2.8-7.3  l-7.8,1L18.1,206.4z"></path>	<path class="st0" d="M16,203l-0.6-1l10.2-6.5l0.6,1L16,203z"></path>	<path class="st0" d="M22.5,192.7l-2.6-4.9l1-0.5l3.2,5.9L13.5,199l-0.6-1.1L22.5,192.7z"></path>	<path class="st0" d="M6.3,183.9l8.3,1.2l4.5-2l0.5,1.1l-4.6,2l-4.8,6.8l-0.5-1.3l4-5.7l-6.9-0.9L6.3,183.9z"></path>	<path class="st0" d="M2,168.8l-0.3-1.2l11.7-2.8l0.3,1.2l-5.5,1.3l1.5,6.4l5.5-1.3l0.3,1.2l-11.7,2.8l-0.3-1.2l5.2-1.2l-1.5-6.4  L2,168.8z"></path>	<path class="st0" d="M11.8,161l-0.7-5.8l1.1-0.1l0.8,7l-12,1.4l-0.8-6.9l1.1-0.1l0.7,5.7l4.2-0.5l-0.6-5.3l1.1-0.1l0.6,5.3  L11.8,161z"></path>	<path class="st0" d="M12,144.8l-2.9,1.2l0.1,5.7l3,1.1l0,1.3L0,149.6l0-1.2l12-4.8L12,144.8z M8,151.3l-0.1-4.9l-6.4,2.5L8,151.3z"></path>	<path class="st0" d="M10.9,140.7v-5.5h1.1v6.7H0v-1.2H10.9z"></path>	<path class="st0" d="M0,127.1h1.1v3.7h10.9v1.2H1.1v3.7H0V127.1z"></path>	<path class="st0" d="M0,117.6v-1.2h12.1v1.2H6.4v6.6h5.6v1.2H0v-1.2h5.3v-6.6H0z"></path>	<path class="st0" d="M8,107.1c-0.6,0.6-1.2,0.8-2,0.8c-0.8,0-1.4-0.3-2-0.8c-0.6-0.6-0.8-1.2-0.8-2c0-0.8,0.3-1.4,0.8-2  c0.5-0.6,1.2-0.8,2-0.8c0.8,0,1.5,0.3,2,0.8c0.6,0.5,0.8,1.2,0.8,2C8.9,105.9,8.6,106.6,8,107.1z"></path>	<g>		<g>			<g>				<path class="st0" d="M102.7,119.1l7.6,10.5l-4.8,3.5l-2.9-3.9V176h4.8v-29.9c0-5.7,3.6-17.7,17.1-22.2c15.1-5,26.7-0.7,28.5,0     l-2.3,5.4c-1.1-0.4-5.8-2-12.5-1.9l-0.6,0l5.1,5.1l-4.2,4.2l-8.3-8.3l-0.1,0c-1.3,0.3-2.6,0.7-3.8,1.1c-0.5,0.2-1,0.3-1.5,0.6     l-0.3,0.1l4.7,5.8l-4.6,3.7l-5.2-6.4l-0.2,0.2c-5.9,5.3-6,12.5-6,12.6V176h53.2c-0.9,2-1.8,4-2.8,5.9h-126     c-1.1-1.9-2-3.9-2.9-5.9h51.2v-29.9c0-0.1-0.1-7.3-6-12.6l-0.2-0.2l-5.2,6.4l-4.6-3.7l4.7-5.8l-0.3-0.1     c-0.6-0.2-1.1-0.4-1.5-0.6c-1.2-0.4-2.5-0.8-3.8-1.1l-0.1,0l-8.3,8.3l-4.2-4.2l5.1-5.1l-0.6,0c-6.7-0.2-11.4,1.5-12.5,1.9     l-2.3-5.4c1.8-0.7,13.6-4.9,28.5,0c13.5,4.5,17.1,16.5,17.1,22.2V176h4.8v-46.9l-2.9,3.9l-4.8-3.5l7.6-10.4l0-0.1l0-5.2     c-0.7-6.3-5.1-14.4-13.1-24l-0.1-0.1l-18.8,0.5L56.8,105l-5.2-2.8L58,90.4l-7.7,0.2l-0.1-5.9L78.6,84l-0.4-0.4     C71.3,76.2,65.3,71,63.3,69.4l3.8-4.5c1.1,1,7,5.9,13.7,12.9l0.3,0.3l1.6-7.7l5.8,1.2L86,83.5l0.1,0.1     c4.2,4.8,7.6,9.4,10.2,13.7l0.5,0.8V80.8c0-11.5-10.1-21.8-11.5-23.3l4-4.3c1.4,1.4,6.8,6.9,10.2,14.4l0.2,0.5l0.2-0.5     c3.6-7.7,9-13.3,10.2-14.4l4,4.3c-0.8,0.8-3.3,3.4-5.8,7.2c-3.7,5.6-5.6,10.9-5.7,15.9l0,17.5l0.5-0.8     c2.6-4.3,6.1-8.9,10.2-13.7l0.1-0.1L111,71.5l5.8-1.2l1.6,7.7l0.3-0.3c6.7-7,12.6-12,13.7-12.9l3.8,4.5c-2,1.6-8,6.8-14.9,14.3     l-0.4,0.4l28.4,0.7l-0.1,5.9l-7.7-0.2l6.4,11.7l-5.2,2.8l-8.1-14.7l-18.8-0.5l-0.1,0.1c-8,9.6-12.3,17.7-13.1,24l0,0     L102.7,119.1z"></path>			</g>		</g>		<g>			<g>				<path class="st0" d="M160.1,187.9c-1.4,2-2.9,4-4.4,5.9H45.8c-1.6-1.9-3.1-3.9-4.4-5.9H160.1z"></path>			</g>		</g>		<g>			<g>				<path class="st0" d="M150.2,199.7c-2.2,2.1-4.5,4.1-7,5.9H58.3c-2.5-1.8-4.8-3.8-7-5.9H150.2z"></path>			</g>		</g>		<g>			<g>				<path class="st0" d="M133.7,211.5c-4.9,2.6-10.2,4.5-15.6,5.9H83.4c-5.4-1.3-10.6-3.3-15.6-5.9H133.7z"></path>			</g>		</g>		<g>			<g>				<path class="st0" d="M184.4,90.6c-0.2-1.4-0.4-2.8-0.6-4.2l0-0.1c-0.4-2-0.8-4.1-1.3-6.1l0,0l0-0.1l0,0     c-0.4-1.4-0.8-2.8-1.2-4.3c-0.3-1-0.6-2-1-2.9c-0.4-1-0.7-2-1.1-2.8l0-0.1c-0.5-1.4-1.1-2.8-1.8-4.1l0-0.1c-0.3-0.7-0.7-1.4-1-2     c-0.9-1.8-1.9-3.6-2.9-5.3c-8.2-13.9-20-25.1-34.3-32.4l-0.1,0c-1.1-0.6-2.3-1.1-3.6-1.7c-1.7-0.8-3.6-1.6-5.6-2.3l-0.1,0     c-0.5-0.2-1.1-0.4-1.6-0.6c-1.7-0.6-3.4-1.1-5-1.6c-0.4-0.1-0.8-0.2-1.2-0.3l-0.2-0.1c-1.5-0.4-3-0.7-4.5-1     c-0.4-0.1-0.7-0.1-1.1-0.2l-0.5-0.1c-1.4-0.3-2.8-0.5-4.2-0.6c-7.1-0.9-14.4-0.9-21.5,0c-1.4,0.2-2.8,0.4-4.2,0.6l-0.1,0     c-1.4,0.2-2.9,0.6-4.3,0.9c-0.5,0.1-0.9,0.2-1.4,0.4c-0.6,0.2-1.3,0.3-1.9,0.5c-0.8,0.2-1.7,0.5-2.5,0.7l-0.1,0l0,0     c-0.8,0.2-1.6,0.5-2.5,0.8c-3.4,1.2-6.7,2.6-9.9,4.2l-0.1,0c-1.8,0.9-3.5,1.8-5,2.7c-0.9,0.5-1.7,1-2.7,1.6     c-1.4,0.9-2.7,1.7-3.9,2.6l-0.2,0.1l0,0C40,41.1,30.9,52,24.8,64.6l0,0.1c-0.6,1.3-1.1,2.4-1.6,3.5c-0.2,0.5-0.4,0.9-0.6,1.4     l-0.2,0.4c-1.3,3.3-2.4,6.7-3.4,10.2l0,0l0,0.1c-0.5,2-1,4.1-1.3,6.1c-0.3,1.4-0.5,2.8-0.6,4.2c-0.4,3.6-0.7,7.2-0.7,10.8V148     c0,3.6,0.2,7.2,0.7,10.7c0.2,1.4,0.4,2.8,0.6,4.2v0.1c0.3,1.6,0.6,3.3,1,4.8c0.6,2.6,1.4,5.3,2.3,7.9c0.8,2.2,1.6,4.3,2.5,6.4     c0.8,1.8,1.7,3.7,2.6,5.4c1.1,2.2,2.4,4.3,3.8,6.4c1.2,1.8,2.5,3.6,3.8,5.4c1.7,2.2,3.5,4.4,5.4,6.4c1.7,1.9,3.6,3.7,5.6,5.4     c2.6,2.3,5.3,4.4,8.1,6.4c7,4.8,14.6,8.5,22.7,11.1l0,0l0.1,0c0.8,0.3,1.7,0.5,2.5,0.7c2.4,0.7,5,1.3,7.6,1.7     c1.4,0.3,2.8,0.5,4.2,0.6c3.6,0.4,7.2,0.7,10.7,0.7l10.8-0.7c1.4-0.2,2.8-0.4,4.1-0.6h0.1c0.7-0.1,1.5-0.3,2.2-0.4     c1.1-0.2,2.2-0.5,3.3-0.8c1.1-0.3,2.2-0.6,3.3-0.9l0.1,0l0,0c8.5-2.5,16.6-6.4,23.9-11.4c2.8-2,5.6-4.1,8.1-6.4     c1.2-1,2.4-2.1,3.7-3.4c0.7-0.7,1.3-1.3,1.9-2c1.9-2,3.7-4.2,5.4-6.4c1.4-1.8,2.7-3.6,3.8-5.4c1.4-2.1,2.6-4.2,3.8-6.4     c0.9-1.7,1.8-3.6,2.6-5.4c0.9-2.1,1.8-4.2,2.5-6.4c1.4-4.1,2.6-8.4,3.4-12.8c0.3-1.4,0.5-2.8,0.6-4.2c0.5-3.6,0.7-7.2,0.7-10.7     v-46.7C185.1,97.8,184.9,94.1,184.4,90.6z M179.2,148c0,9.6-1.7,19-5.1,27.9c-0.8,2.2-1.8,4.3-2.8,6.4c-0.9,1.8-1.9,3.7-2.9,5.4     c-1.3,2.2-2.7,4.4-4.2,6.4c-1.4,1.9-2.9,3.7-4.4,5.4c-2,2.2-4.1,4.4-6.3,6.4c-2.1,2-4.4,3.8-6.7,5.4c-3.3,2.4-6.8,4.6-10.4,6.4     c-11.1,5.7-23.1,8.6-35.6,8.6c-12.5,0-24.5-2.9-35.6-8.6c-3.6-1.9-7.2-4-10.4-6.4c-2.3-1.7-4.5-3.5-6.7-5.4     c-2.2-2-4.3-4.2-6.3-6.4c-1.5-1.7-3-3.5-4.4-5.4c-1.5-2-2.9-4.2-4.2-6.4c-1.1-1.8-2-3.6-2.9-5.4c-1-2.1-2-4.2-2.8-6.4     c-3.4-8.9-5.1-18.3-5.1-27.9v-46.7c0-43.3,35.2-78.5,78.5-78.5c43.3,0,78.5,35.2,78.5,78.5V148z"></path>			</g>		</g>		<g>			<g>				<path class="st0" d="M88.4,119.9c-0.9,0.9-2.1,1.4-3.5,1.4c-2.2,0-4.5-1.2-5.5-1.7c-4.8-2.5-11.2-3.2-17.1-3.2     c-2.1,0-4.2,0.1-6.1,0.2c-6.9,0.5-12.5,1.7-13.7,1.9l-1.3-5.8c2.7-0.6,27.1-5.7,41,1.5c0.4,0.2,0.7,0.4,1,0.5l0.5,0.2l-0.2-0.5     c-0.8-2.7-3.1-7.4-5.5-11.3l5-3.1C89.2,110.3,91.1,117,88.4,119.9z"></path>			</g>		</g>		<g>			<g>				<path class="st0" d="M158.3,112.8l-1.3,5.8c-1.2-0.3-6.8-1.4-13.7-1.9c-7-0.5-16.7-0.4-23.2,3l0,0c-1,0.5-3.3,1.7-5.5,1.7     c-1.4,0-2.6-0.5-3.5-1.4c-2.7-2.9-0.9-9.6,5.4-19.8l5,3.1c-2.5,4-4.7,8.7-5.5,11.3l-0.1,0.5l0.5-0.2c0.3-0.1,0.6-0.3,1-0.5     C131.2,107.2,155.6,112.3,158.3,112.8z"></path>			</g>		</g>		<g>			<g>				<path class="st0" d="M102.7,53c0,0.8-0.2,1.6-0.6,2.4c-0.4,0.7-1,1.5-2.3,2.3c-1.3-0.9-1.9-1.7-2.3-2.3     c-0.4-0.8-0.7-1.6-0.7-2.4c0-0.8,0.2-1.6,0.7-2.4c0.4-0.6,1-1.5,2.3-2.3c1.3,0.8,1.9,1.6,2.3,2.3     C102.4,51.4,102.7,52.2,102.7,53z"></path>			</g>		</g>		<g>			<g>				<path class="st0" d="M128.7,59.7c-0.2,0.9-0.7,1.6-1.2,2.1c-0.6,0.6-1.3,1-2.1,1.2c-0.8,0.2-1.8,0.3-3.3,0     c-0.3-1.5-0.2-2.5,0-3.3c0.2-0.9,0.6-1.6,1.2-2.1c0.6-0.6,1.3-1,2.1-1.2c0.7-0.2,1.7-0.3,3.3,0C129,57.9,128.9,59,128.7,59.7z"></path>			</g>		</g>		<g>			<g>				<path class="st0" d="M148.1,74.3c-0.2,1.6-0.6,2.5-1,3.1c-0.5,0.7-1.1,1.3-1.8,1.7c-0.7,0.4-1.5,0.5-2.4,0.5     c-0.8,0-1.8-0.2-3.1-1c0.1-1.5,0.6-2.5,1-3.1c0.5-0.8,1.1-1.3,1.8-1.7c0.7-0.4,1.5-0.5,2.4-0.5     C145.8,73.4,146.7,73.5,148.1,74.3z"></path>			</g>		</g>		<g>			<g>				<path class="st0" d="M133,144.7c-0.3,0.8-0.7,1.4-1.4,2c-0.6,0.5-1.4,1.1-3,1.4c-0.9-1.2-1.2-2.2-1.4-3     c-0.1-0.9-0.1-1.7,0.2-2.5c0.3-0.7,0.7-1.4,1.4-2c0.6-0.5,1.4-1,2.9-1.4c1,1.3,1.2,2.2,1.4,3C133.3,143.1,133.2,143.9,133,144.7     z"></path>			</g>		</g>		<g>			<g>				<path class="st0" d="M134.3,106.2c-1.6,0.1-2.5-0.2-3.2-0.5c-0.8-0.4-1.5-0.9-1.9-1.5c-0.5-0.6-0.8-1.4-0.9-2.3     c-0.1-0.7-0.1-1.8,0.5-3.2c1.6-0.1,2.5,0.2,3.2,0.5c0.8,0.4,1.5,0.9,1.9,1.5c0.5,0.6,0.8,1.4,0.9,2.3     C134.9,103.7,134.9,104.7,134.3,106.2z"></path>			</g>		</g>		<g>			<g>				<path class="st0" d="M153.5,139.3c-1.6,0.1-2.6-0.2-3.2-0.5c-0.8-0.4-1.4-0.9-1.9-1.5c-0.5-0.6-0.8-1.4-0.9-2.3     c-0.1-0.8-0.1-1.8,0.5-3.2c1.6-0.1,2.5,0.2,3.2,0.5c0.8,0.4,1.5,0.9,1.9,1.5c0.5,0.7,0.8,1.4,0.9,2.3     C154,136.8,154,137.8,153.5,139.3z"></path>			</g>		</g>		<g>			<g>				<path class="st0" d="M163,102.6c-0.4,1.5-1.1,2.3-1.5,2.9c-0.6,0.6-1.3,1.1-2.1,1.3c-0.8,0.2-1.6,0.3-2.4,0.1     c-0.7-0.2-1.7-0.5-2.9-1.5c0.4-1.5,1-2.3,1.5-2.9c0.6-0.7,1.3-1.1,2.1-1.3c0.8-0.2,1.6-0.3,2.5-0.1     C160.9,101.3,161.8,101.6,163,102.6z"></path>			</g>		</g>		<g>			<g>				<path class="st0" d="M77.3,63.1c-1.5,0.3-2.5,0.2-3.3,0c-0.9-0.2-1.6-0.6-2.1-1.2l0,0c-0.6-0.6-1-1.3-1.2-2.1     c-0.2-0.7-0.3-1.8,0-3.3c1.5-0.3,2.5-0.2,3.3,0c0.8,0.2,1.6,0.6,2.1,1.2c0.6,0.6,1,1.3,1.2,2.1C77.5,60.5,77.7,61.5,77.3,63.1z"></path>			</g>		</g>		<g>			<g>				<path class="st0" d="M59.7,78.6c-1.4,0.8-2.3,0.9-3.1,1c-0.9,0-1.7-0.1-2.4-0.5h0c-0.7-0.4-1.3-0.9-1.8-1.7     c-0.4-0.6-0.9-1.6-1-3.1c1.3-0.8,2.3-0.9,3.1-1c0.9,0,1.7,0.1,2.4,0.5c0.7,0.3,1.3,0.9,1.8,1.6C59.1,76.1,59.5,77,59.7,78.6z"></path>			</g>		</g>		<g>			<g>				<path class="st0" d="M72.2,145.1c-0.1,0.7-0.4,1.7-1.4,3c-1.5-0.3-2.4-0.9-3-1.4c-0.7-0.6-1.2-1.2-1.4-2     c-0.3-0.7-0.3-1.6-0.2-2.4c0.1-0.7,0.4-1.7,1.4-3c1.5,0.4,2.4,0.9,2.9,1.4c0.7,0.6,1.2,1.3,1.4,2     C72.3,143.4,72.3,144.2,72.2,145.1z"></path>			</g>		</g>		<g>			<g>				<path class="st0" d="M71.1,101.9c-0.1,0.9-0.4,1.7-0.9,2.3c-0.5,0.6-1.1,1.2-1.9,1.5c-0.7,0.3-1.7,0.6-3.2,0.5     c-0.6-1.4-0.6-2.4-0.5-3.2c0.1-0.9,0.4-1.6,0.9-2.3c0.5-0.6,1.1-1.2,1.9-1.5c0.7-0.3,1.7-0.6,3.2-0.5     C71.2,100.1,71.2,101.1,71.1,101.9z"></path>			</g>		</g>		<g>			<g>				<path class="st0" d="M52,135c-0.1,0.9-0.4,1.7-0.9,2.3c-0.5,0.7-1.1,1.2-1.9,1.5c-0.7,0.3-1.6,0.6-3.2,0.5     c-0.6-1.5-0.6-2.5-0.5-3.2c0.1-0.9,0.4-1.7,0.9-2.3c0.5-0.7,1.1-1.1,1.9-1.5c0.7-0.3,1.6-0.6,3.2-0.5C52,133.2,52,134.2,52,135z     "></path>			</g>		</g>		<g>			<g>				<path class="st0" d="M45.4,105.4c-1.2,1-2.2,1.3-2.9,1.5c-0.4,0.1-0.8,0.1-1.1,0.1c-0.5,0-0.9-0.1-1.3-0.2     c-0.8-0.2-1.5-0.7-2.1-1.3c-0.5-0.5-1.1-1.4-1.5-2.9c1.2-1,2.1-1.3,2.9-1.5c0.9-0.2,1.7-0.2,2.5,0.1c0.8,0.2,1.5,0.7,2.1,1.3     C44.3,103.1,45,103.9,45.4,105.4z"></path>			</g>		</g>	</g></g></svg>